<svg xmlns="http://www.w3.org/2000/svg" xmlns:xlink="http://www.w3.org/1999/xlink" width="500" zoomAndPan="magnify" viewBox="0 0 375 374.999991" height="500" preserveAspectRatio="xMidYMid meet" version="1.0"><defs><filter x="0%" y="0%" width="100%" height="100%" id="a2ad00f92a"><feColorMatrix values="0 0 0 0 1 0 0 0 0 1 0 0 0 0 1 0 0 0 1 0" color-interpolation-filters="sRGB"/></filter><mask id="b279751133"><g filter="url(#a2ad00f92a)"><rect x="-37.5" width="450" fill="#000000" y="-37.499999" height="449.999989" fill-opacity="0.45"/></g></mask><clipPath id="73f7159530"><rect x="0" width="375" y="0" height="375"/></clipPath><clipPath id="d48df05e96"><path d="M 63.417969 63.417969 L 311.667969 63.417969 L 311.667969 311.667969 L 63.417969 311.667969 Z M 63.417969 63.417969 " clip-rule="nonzero"/></clipPath></defs><g mask="url(#b279751133)"><g transform="matrix(1, 0, 0, 1, 0, 0)"><g clip-path="url(#73f7159530)"><path fill="#ffffff" d="M 187.5 375 C 84.144531 375 0 290.855469 0 187.5 C 0 84.144531 84.144531 0 187.5 0 C 290.855469 0 375 84.144531 375 187.5 C 375 290.855469 290.855469 375 187.5 375 Z M 187.5 2.769531 C 85.621094 2.769531 2.769531 85.621094 2.769531 187.5 C 2.769531 289.378906 85.621094 372.230469 187.5 372.230469 C 289.378906 372.230469 372.230469 289.378906 372.230469 187.5 C 372.230469 85.621094 289.378906 2.769531 187.5 2.769531 Z M 187.5 2.769531 " fill-opacity="1" fill-rule="nonzero"/></g></g></g><g clip-path="url(#d48df05e96)"><path fill="#ffffff" d="M 187.496094 311.574219 C 119.101562 311.574219 63.417969 255.894531 63.417969 187.496094 C 63.417969 119.101562 119.101562 63.417969 187.496094 63.417969 C 255.894531 63.417969 311.574219 119.101562 311.574219 187.496094 C 311.574219 255.894531 255.894531 311.574219 187.496094 311.574219 Z M 187.496094 65.253906 C 120.078125 65.253906 65.253906 120.078125 65.253906 187.496094 C 65.253906 254.914062 120.078125 309.742188 187.496094 309.742188 C 254.914062 309.742188 309.742188 254.914062 309.742188 187.496094 C 309.742188 120.078125 254.914062 65.253906 187.496094 65.253906 Z M 187.496094 65.253906 " fill-opacity="1" fill-rule="nonzero"/></g></svg>