<svg xmlns="http://www.w3.org/2000/svg" xmlns:xlink="http://www.w3.org/1999/xlink" width="944" zoomAndPan="magnify" viewBox="0 0 708.75 567.000005" height="755" preserveAspectRatio="xMidYMid meet" version="1.0"><defs><g/></defs><g fill="#000000" fill-opacity="1"><g transform="translate(25.074776, 323.002769)"><g><path d="M 56.3125 -37.890625 L 73.046875 -37.890625 L 73.046875 -8.359375 C 69.085938 -5.460938 64.234375 -3.113281 58.484375 -1.3125 C 52.734375 0.476562 47.28125 1.375 42.125 1.375 C 34.644531 1.375 27.890625 -0.300781 21.859375 -3.65625 C 15.828125 -7.007812 11.082031 -11.613281 7.625 -17.46875 C 4.164062 -23.320312 2.4375 -29.882812 2.4375 -37.15625 C 2.4375 -44.351562 4.21875 -50.863281 7.78125 -56.6875 C 11.34375 -62.507812 16.242188 -67.078125 22.484375 -70.390625 C 28.734375 -73.710938 35.707031 -75.375 43.40625 -75.375 C 48.90625 -75.375 54.40625 -74.367188 59.90625 -72.359375 C 65.414062 -70.347656 70.078125 -67.644531 73.890625 -64.25 L 62.875 -50.703125 C 60.195312 -53.242188 57.109375 -55.253906 53.609375 -56.734375 C 50.117188 -58.222656 46.679688 -58.96875 43.296875 -58.96875 C 39.347656 -58.96875 35.785156 -58.015625 32.609375 -56.109375 C 29.429688 -54.203125 26.925781 -51.585938 25.09375 -48.265625 C 23.257812 -44.953125 22.34375 -41.25 22.34375 -37.15625 C 22.34375 -32.988281 23.257812 -29.226562 25.09375 -25.875 C 26.925781 -22.53125 29.460938 -19.90625 32.703125 -18 C 35.953125 -16.09375 39.554688 -15.140625 43.515625 -15.140625 C 47.253906 -15.140625 51.519531 -16.335938 56.3125 -18.734375 Z M 56.3125 -37.890625 "/></g></g></g><g fill="#000000" fill-opacity="1"><g transform="translate(103.730291, 323.002769)"><g><path d="M 25.296875 -30.59375 C 25.296875 -25.9375 26.671875 -22.195312 29.421875 -19.375 C 32.179688 -16.550781 35.675781 -15.140625 39.90625 -15.140625 C 44.070312 -15.140625 47.441406 -16.53125 50.015625 -19.3125 C 52.585938 -22.101562 53.875 -25.863281 53.875 -30.59375 L 53.875 -74.203125 L 73.25 -74.203125 L 73.25 -30.59375 C 73.25 -24.164062 71.890625 -18.535156 69.171875 -13.703125 C 66.460938 -8.867188 62.582031 -5.144531 57.53125 -2.53125 C 52.488281 0.0703125 46.578125 1.375 39.796875 1.375 C 33.023438 1.375 27.082031 0.0703125 21.96875 -2.53125 C 16.851562 -5.144531 12.898438 -8.867188 10.109375 -13.703125 C 7.316406 -18.535156 5.921875 -24.164062 5.921875 -30.59375 L 5.921875 -74.203125 L 25.296875 -74.203125 Z M 25.296875 -30.59375 "/></g></g></g><g fill="#000000" fill-opacity="1"><g transform="translate(183.020982, 323.002769)"><g><path d="M 7.203125 0 L 7.203125 -74.203125 L 65.734375 -74.203125 L 65.734375 -58.75 L 26.578125 -58.75 L 26.578125 -44.890625 L 61.921875 -44.890625 L 61.921875 -29.53125 L 26.578125 -29.421875 L 26.578125 -15.453125 L 66.796875 -15.453125 L 66.796875 0 Z M 7.203125 0 "/></g></g></g><g fill="#000000" fill-opacity="1"><g transform="translate(254.477876, 323.002769)"><g><path d="M 39.796875 -74.203125 C 49.253906 -74.203125 56.59375 -71.925781 61.8125 -67.375 C 67.039062 -62.820312 69.65625 -56.421875 69.65625 -48.171875 C 69.65625 -39.421875 67.039062 -32.625 61.8125 -27.78125 C 56.59375 -22.945312 49.253906 -20.53125 39.796875 -20.53125 L 26.578125 -20.53125 L 26.578125 0 L 7.203125 0 L 7.203125 -74.203125 Z M 38.84375 -35.984375 C 42.800781 -35.984375 45.851562 -36.972656 48 -38.953125 C 50.15625 -40.929688 51.234375 -43.789062 51.234375 -47.53125 C 51.234375 -51.125 50.15625 -53.890625 48 -55.828125 C 45.851562 -57.773438 42.800781 -58.75 38.84375 -58.75 L 26.578125 -58.75 L 26.578125 -35.984375 Z M 38.84375 -35.984375 "/></g></g></g><g fill="#000000" fill-opacity="1"><g transform="translate(326.46407, 323.002769)"><g><path d="M 58.328125 -51.875 C 54.378906 -54.195312 50.160156 -56.097656 45.671875 -57.578125 C 41.191406 -59.066406 37.4375 -59.8125 34.40625 -59.8125 C 32.007812 -59.8125 30.117188 -59.367188 28.734375 -58.484375 C 27.359375 -57.597656 26.671875 -56.3125 26.671875 -54.625 C 26.671875 -53 27.269531 -51.640625 28.46875 -50.546875 C 29.675781 -49.453125 31.160156 -48.566406 32.921875 -47.890625 C 34.679688 -47.222656 37.289062 -46.363281 40.75 -45.3125 C 45.90625 -43.820312 50.160156 -42.335938 53.515625 -40.859375 C 56.867188 -39.378906 59.742188 -37.101562 62.140625 -34.03125 C 64.535156 -30.957031 65.734375 -26.953125 65.734375 -22.015625 C 65.734375 -17.078125 64.425781 -12.859375 61.8125 -9.359375 C 59.207031 -5.867188 55.628906 -3.238281 51.078125 -1.46875 C 46.523438 0.289062 41.460938 1.171875 35.890625 1.171875 C 29.742188 1.171875 23.617188 0.09375 17.515625 -2.0625 C 11.410156 -4.21875 6.132812 -7.164062 1.6875 -10.90625 L 9.203125 -26.046875 C 12.941406 -22.722656 17.367188 -20.003906 22.484375 -17.890625 C 27.609375 -15.773438 32.144531 -14.71875 36.09375 -14.71875 C 38.988281 -14.71875 41.265625 -15.242188 42.921875 -16.296875 C 44.578125 -17.359375 45.40625 -18.910156 45.40625 -20.953125 C 45.40625 -22.648438 44.785156 -24.0625 43.546875 -25.1875 C 42.316406 -26.320312 40.765625 -27.222656 38.890625 -27.890625 C 37.023438 -28.566406 34.398438 -29.363281 31.015625 -30.28125 C 25.929688 -31.6875 21.726562 -33.113281 18.40625 -34.5625 C 15.09375 -36.007812 12.253906 -38.195312 9.890625 -41.125 C 7.523438 -44.050781 6.34375 -47.953125 6.34375 -52.828125 C 6.34375 -57.410156 7.5625 -61.429688 10 -64.890625 C 12.4375 -68.347656 15.894531 -71.007812 20.375 -72.875 C 24.851562 -74.75 30.054688 -75.6875 35.984375 -75.6875 C 41.347656 -75.6875 46.640625 -74.925781 51.859375 -73.40625 C 57.085938 -71.894531 61.675781 -69.867188 65.625 -67.328125 Z M 58.328125 -51.875 "/></g></g></g><g fill="#000000" fill-opacity="1"><g transform="translate(394.850965, 323.002769)"><g><path d="M 0.734375 -58.21875 L 0.734375 -74.203125 L 64.359375 -74.203125 L 64.359375 -58.21875 L 42.125 -58.21875 L 42.125 0 L 22.765625 0 L 22.765625 -58.21875 Z M 0.734375 -58.21875 "/></g></g></g><g fill="#000000" fill-opacity="1"><g transform="translate(459.850262, 323.002769)"><g><path d="M 82.359375 0 L 61.71875 0 L 56.640625 -13.125 L 24.5625 -13.125 L 19.375 0 L -0.53125 0 L 31.328125 -74.203125 L 51.234375 -74.203125 Z M 40.75 -54.40625 L 30.375 -27.953125 L 50.921875 -27.953125 Z M 40.75 -54.40625 "/></g></g></g><g fill="#000000" fill-opacity="1"><g transform="translate(541.68165, 323.002769)"><g><path d="M 73.671875 0 L 51.765625 0 L 40.96875 -20.53125 L 26.578125 -20.53125 L 26.578125 0 L 7.203125 0 L 7.203125 -74.203125 L 40.546875 -74.203125 C 50.359375 -74.203125 57.960938 -71.925781 63.359375 -67.375 C 68.753906 -62.820312 71.453125 -56.421875 71.453125 -48.171875 C 71.453125 -42.585938 70.320312 -37.765625 68.0625 -33.703125 C 65.8125 -29.648438 62.53125 -26.492188 58.21875 -24.234375 Z M 26.578125 -58.75 L 26.578125 -35.984375 L 40.65625 -35.984375 C 44.601562 -35.984375 47.648438 -36.972656 49.796875 -38.953125 C 51.953125 -40.929688 53.03125 -43.789062 53.03125 -47.53125 C 53.03125 -51.125 51.953125 -53.890625 49.796875 -55.828125 C 47.648438 -57.773438 44.601562 -58.75 40.65625 -58.75 Z M 26.578125 -58.75 "/></g></g></g><g fill="#000000" fill-opacity="1"><g transform="translate(618.325768, 323.002769)"><g><path d="M 0.734375 -58.21875 L 0.734375 -74.203125 L 64.359375 -74.203125 L 64.359375 -58.21875 L 42.125 -58.21875 L 42.125 0 L 22.765625 0 L 22.765625 -58.21875 Z M 0.734375 -58.21875 "/></g></g></g></svg>